<svg width="16" height="16" viewBox="0 0 16 16" fill="none" xmlns="http://www.w3.org/2000/svg">
<path d="M9.26857 10.4685L10.1219 9.61521C10.2368 9.5017 10.3823 9.424 10.5405 9.39154C10.6987 9.35908 10.863 9.37326 11.0133 9.43235L12.0533 9.84759C12.2053 9.90926 12.3355 10.0145 12.4277 10.1501C12.5199 10.2857 12.5699 10.4455 12.5714 10.6095V12.5143C12.5705 12.6258 12.5471 12.736 12.5025 12.8382C12.4579 12.9405 12.3931 13.0326 12.3119 13.1091C12.2308 13.1857 12.135 13.245 12.0303 13.2835C11.9256 13.322 11.8143 13.339 11.7029 13.3333C4.41524 12.88 2.94476 6.70854 2.66667 4.34664C2.65376 4.23065 2.66555 4.11325 2.70127 4.00215C2.737 3.89105 2.79584 3.78877 2.87393 3.70204C2.95202 3.61532 3.04759 3.54611 3.15434 3.49897C3.2611 3.45183 3.37663 3.42783 3.49333 3.42854H5.33333C5.49753 3.42903 5.65782 3.47863 5.7936 3.57095C5.92937 3.66328 6.03442 3.79412 6.09524 3.94664L6.51048 4.98664C6.57152 5.13638 6.5871 5.30079 6.55526 5.45933C6.52341 5.61787 6.44556 5.76351 6.33143 5.87807L5.47809 6.7314C5.47809 6.7314 5.96952 10.0571 9.26857 10.4685Z" fill="black"/>
<circle cx="8" cy="8" r="7.5" stroke="black"/>
</svg>
