<svg width="14" height="14" viewBox="0 0 14 14" fill="none" xmlns="http://www.w3.org/2000/svg">
<g clip-path="url(#clip0_303_21)">
<path d="M10.2741 9.05121C11.1214 7.89506 11.5009 6.46164 11.3367 5.03772C11.1724 3.61379 10.4766 2.30438 9.38843 1.37145C8.30024 0.438516 6.89992 -0.0491369 5.46762 0.00605213C4.03532 0.0612411 2.67667 0.655202 1.6635 1.6691C0.65032 2.68301 0.0573319 4.04208 0.00316783 5.47441C-0.0509963 6.90675 0.437658 8.30672 1.37137 9.39425C2.30508 10.4818 3.61499 11.1766 5.03903 11.3398C6.46307 11.503 7.89622 11.1225 9.05176 10.2745H9.05089C9.07714 10.3095 9.10514 10.3427 9.13664 10.3751L12.5054 13.7438C12.6695 13.908 12.892 14.0003 13.1241 14.0004C13.3563 14.0005 13.5789 13.9083 13.7431 13.7443C13.9073 13.5802 13.9995 13.3576 13.9996 13.1255C13.9997 12.8934 13.9076 12.6708 13.7435 12.5066L10.3748 9.13783C10.3435 9.10617 10.3098 9.07692 10.2741 9.05034V9.05121ZM10.4999 5.68771C10.4999 6.3197 10.3754 6.94549 10.1336 7.52937C9.89171 8.11325 9.53722 8.64378 9.09034 9.09066C8.64346 9.53754 8.11293 9.89203 7.52905 10.1339C6.94517 10.3757 6.31937 10.5002 5.68739 10.5002C5.0554 10.5002 4.4296 10.3757 3.84572 10.1339C3.26184 9.89203 2.73132 9.53754 2.28444 9.09066C1.83755 8.64378 1.48307 8.11325 1.24122 7.52937C0.999367 6.94549 0.874888 6.3197 0.874888 5.68771C0.874888 4.41136 1.38192 3.18728 2.28444 2.28476C3.18696 1.38224 4.41103 0.87521 5.68739 0.87521C6.96374 0.87521 8.18782 1.38224 9.09034 2.28476C9.99286 3.18728 10.4999 4.41136 10.4999 5.68771V5.68771Z" fill="black"/>
</g>
<defs>
<clipPath id="clip0_303_21">
<rect width="14" height="14" fill="white"/>
</clipPath>
</defs>
</svg>
